<svg xmlns="http://www.w3.org/2000/svg" xmlns:xlink="http://www.w3.org/1999/xlink" viewBox="0 0 256 79.49"><defs><style>.cls-1{fill:none;}.cls-2,.cls-5{font-size:64.92px;font-family:Montepetrum-Bold, Montepetrum;font-weight:700;}.cls-2{fill:#060063;}.cls-3{clip-path:url(#clip-path);}.cls-4{fill:url(#linear-gradient);}.cls-5{fill:#16aaf7;}</style><clipPath id="clip-path"><path class="cls-1" d="M114.63,51.4a6.84,6.84,0,1,1-6.35-7.29A6.83,6.83,0,0,1,114.63,51.4ZM123.93,40a4.92,4.92,0,1,0-5.24,4.57A4.91,4.91,0,0,0,123.93,40ZM111.32,28.68a3.67,3.67,0,1,0,3.91-3.41A3.66,3.66,0,0,0,111.32,28.68Zm21.82,16.51a3.67,3.67,0,1,0-3.91,3.42A3.66,3.66,0,0,0,133.14,45.19ZM122.69,32.12a3.67,3.67,0,1,0,3.92-3.41A3.67,3.67,0,0,0,122.69,32.12ZM123.6,49a5.48,5.48,0,1,0,5.09,5.84A5.48,5.48,0,0,0,123.6,49Zm11.81,3.82a3.38,3.38,0,1,0,3.14,3.61A3.39,3.39,0,0,0,135.41,52.81Zm10-2.38a1.82,1.82,0,1,0-1.69-1.94A1.82,1.82,0,0,0,145.39,50.43ZM140.3,37.86A1.82,1.82,0,1,0,142,39.8,1.82,1.82,0,0,0,140.3,37.86ZM137,32.77a1.82,1.82,0,1,0-1.69-1.94A1.82,1.82,0,0,0,137,32.77Zm-14.48-13.7a1.82,1.82,0,1,0-1.69-1.94A1.82,1.82,0,0,0,122.56,19.07Zm7.34,4.09a1.82,1.82,0,1,0-1.69-1.94A1.83,1.83,0,0,0,129.9,23.16ZM146,42a1.15,1.15,0,0,0,1.23-1.07,1.15,1.15,0,1,0-2.3-.16A1.15,1.15,0,0,0,146,42Zm0-6.11a.81.81,0,0,0,.86-.75.81.81,0,1,0-.86.75Zm-4.6-2.75a1.15,1.15,0,1,0,1.07,1.22A1.14,1.14,0,0,0,141.4,33.11Zm3.8,20.8a2.63,2.63,0,1,0,2.44,2.8A2.63,2.63,0,0,0,145.2,53.91ZM138,45a2.63,2.63,0,1,0,2.44,2.8A2.63,2.63,0,0,0,138,45ZM121.06,24.18a2.63,2.63,0,1,0,2.81-2.44A2.64,2.64,0,0,0,121.06,24.18Zm9.63,1.71a2.63,2.63,0,1,0,2.81-2.44A2.64,2.64,0,0,0,130.69,25.89Zm.64,11a2.63,2.63,0,1,0,2.81-2.44A2.64,2.64,0,0,0,131.33,36.86Zm-21.17-1.73a5.48,5.48,0,1,0-5.85,5.09A5.48,5.48,0,0,0,110.16,35.13Zm-6.93-8.54a3.76,3.76,0,1,0-3.49-4A3.76,3.76,0,0,0,103.23,26.59Zm-.73-10.81a2.63,2.63,0,1,0-2.45-2.8A2.62,2.62,0,0,0,102.5,15.78ZM111.31,20a2.63,2.63,0,1,0,2.81-2.45A2.63,2.63,0,0,0,111.31,20ZM113,14.39a1.82,1.82,0,1,0-1.69-1.94A1.82,1.82,0,0,0,113,14.39Zm9.9-1.34a1.15,1.15,0,1,0,.16-2.29,1.15,1.15,0,1,0-.16,2.29Zm5.8,3.45a1.15,1.15,0,0,0,1.07,1.23,1.15,1.15,0,1,0-1.07-1.23Zm.46-4.35a.81.81,0,1,0-.75-.87A.82.82,0,0,0,129.16,12.15Z"/></clipPath><linearGradient id="linear-gradient" x1="112.48" y1="63.19" x2="133.81" y2="13.27" gradientUnits="userSpaceOnUse"><stop offset="0.01" stop-color="#04005e"/><stop offset="0.09" stop-color="#040b66"/><stop offset="0.22" stop-color="#03297d"/><stop offset="0.4" stop-color="#0158a1"/><stop offset="0.54" stop-color="#0087c5"/><stop offset="1" stop-color="#5ee1ed"/></linearGradient></defs><g id="Layer_2" data-name="Layer 2"><g id="Layer_1-2" data-name="Layer 1"><text class="cls-2" transform="translate(0.07 55.5)">GLOBAL</text><g class="cls-3"><rect class="cls-4" x="97.19" y="8.33" width="54.28" height="54.28"/></g><text class="cls-5" transform="translate(146.05 56.04)">TRONICS</text></g></g></svg>