<?xml version="1.0" encoding="utf-8"?>
<!-- Generator: Adobe Illustrator 26.0.1, SVG Export Plug-In . SVG Version: 6.00 Build 0)  -->
<svg version="1.1" id="Layer_1" xmlns="http://www.w3.org/2000/svg" xmlns:xlink="http://www.w3.org/1999/xlink" x="0px" y="0px"
	 viewBox="0 0 143.4 143.4" style="enable-background:new 0 0 143.4 143.4;" xml:space="preserve">
<style type="text/css">
	.st0{fill:url(#SVGID_1_);}
</style>
<linearGradient id="SVGID_1_" gradientUnits="userSpaceOnUse" x1="26.6926" y1="14.1754" x2="99.6831" y2="115.0565" gradientTransform="matrix(1 0 0 -1 0 144.6614)">
	<stop  offset="1.000000e-02" style="stop-color:#04005E"/>
	<stop  offset="9.000000e-02" style="stop-color:#040B66"/>
	<stop  offset="0.22" style="stop-color:#03297D"/>
	<stop  offset="0.4" style="stop-color:#0158A1"/>
	<stop  offset="0.54" style="stop-color:#0087C5"/>
	<stop  offset="1" style="stop-color:#5EE1ED"/>
</linearGradient>
<path class="st0" d="M43.8,38.4c3.9,0.3,7.2-2.6,7.5-6.5s-2.6-7.2-6.5-7.5h-0.1c-3.8-0.2-7.1,2.6-7.4,6.5
	C37.1,34.8,39.9,38.1,43.8,38.4z M41.8,16c2.6,0.2,4.9-1.8,5.1-4.5s-1.8-4.9-4.5-5.1c-2.6-0.2-4.9,1.8-5.1,4.5l0,0
	C37.2,13.5,39.1,15.8,41.8,16L41.8,16z M46.3,64.2c5.3,0.4,10-3.7,10.4-9c0.4-5.3-3.7-10-9-10.4l0,0c-5.3-0.4-10,3.7-10.4,9
	C37,59.2,41,63.8,46.3,64.2z M44.7,82c-0.5,7.2,4.9,13.4,12.1,13.8c7.2,0.5,13.4-4.9,13.8-12.1l0,0c0.5-7.2-4.9-13.4-12.1-13.8
	C51.4,69.4,45.2,74.8,44.7,82z M84.7,106.4c5.3,0.4,10-3.7,10.4-9s-3.7-10-9-10.4s-10,3.7-10.4,9S79.3,106.1,84.7,106.4L84.7,106.4z
	 M122.9,106.1c-0.2,2.6,1.8,4.9,4.5,5.1c2.7,0.2,4.9-1.8,5.1-4.5s-1.8-4.9-4.5-5.1C125.4,101.5,123.1,103.5,122.9,106.1z
	 M114.3,104.3L114.3,104.3c0.3-3.9-2.6-7.2-6.4-7.5l0,0c-3.9-0.3-7.2,2.6-7.5,6.5s2.6,7.2,6.5,7.5S114,108.2,114.3,104.3z M6.7,37.7
	c-0.3,5.5,3.8,10.2,9.2,10.6c5.5,0.4,10.2-3.8,10.6-9.2s-3.8-10.2-9.2-10.6C11.9,28,7.1,32.2,6.7,37.7L6.7,37.7z M21.5,13.3
	c0.3-3.9-2.5-7.2-6.4-7.6c-3.9-0.3-7.2,2.5-7.6,6.4v0.1c-0.2,3.8,2.6,7.1,6.5,7.4l0,0C17.8,20,21.2,17.2,21.5,13.3z M18.8,84.3
	c8,0.5,14.9-5.5,15.4-13.5l0,0c0.5-8-5.5-14.9-13.5-15.4S5.8,60.9,5.3,68.9C4.8,76.8,10.9,83.7,18.8,84.3z M126.9,120.4L126.9,120.4
	c-3.9-0.3-7.2,2.6-7.5,6.5s2.6,7.2,6.4,7.5c3.9,0.3,7.2-2.6,7.5-6.4v-0.1C133.6,124.1,130.7,120.8,126.9,120.4z M29.3,94.6
	c-10-0.7-18.6,6.9-19.2,16.8c-0.7,10,6.9,18.6,16.8,19.2s18.6-6.9,19.2-16.8C46.8,103.9,39.3,95.3,29.3,94.6L29.3,94.6z M54.4,120.9
	c-0.5,8,5.5,14.9,13.4,15.4c8,0.5,14.9-5.5,15.4-13.4l0,0c0.5-8-5.5-14.9-13.5-15.4C61.8,106.9,54.9,112.9,54.4,120.9z M99.8,135.4
	c4.9,0.3,9.2-3.4,9.5-8.3c0.3-4.9-3.4-9.2-8.3-9.5l0,0c-4.9-0.3-9.2,3.4-9.5,8.3C91.1,130.8,94.9,135.1,99.8,135.4z M86.8,8.1
	c-0.1,1.2-1.1,2.1-2.3,2c-1.2-0.1-2.1-1.1-2-2.3s1.1-2.1,2.3-2C85.9,5.9,86.8,6.9,86.8,8.1z M83.3,21.6L83.3,21.6
	c-0.1,1.7,1.1,3.1,2.8,3.2c1.7,0.1,3.1-1.1,3.2-2.8c0.1-1.6-1.1-3.1-2.7-3.2C84.9,18.7,83.4,19.9,83.3,21.6z M86.4,39.2
	C86.4,39.2,86.5,39.2,86.4,39.2c2.7,0.2,5-1.8,5.1-4.5s-1.8-4.9-4.5-5.1c-2.6-0.2-4.9,1.8-5.1,4.5C81.8,36.7,83.8,39,86.4,39.2z
	 M116.5,71.5c1.6,0.1,3-1.1,3.2-2.8c0.1-1.7-1.1-3.1-2.7-3.2h-0.1c-1.7-0.1-3.1,1.2-3.2,2.8C113.6,70,114.9,71.4,116.5,71.5z
	 M129,72.8c1.2,0.1,2.2-0.8,2.3-2s-0.8-2.2-2-2.3c-1.2-0.1-2.2,0.8-2.3,2C126.9,71.7,127.8,72.7,129,72.8z M106,55
	c-2.6-0.2-4.9,1.8-5.1,4.5l0,0c-0.2,2.6,1.8,4.9,4.5,5.1c2.6,0.2,4.9-1.8,5.1-4.5C110.7,57.5,108.7,55.2,106,55z M96,40L96,40
	c-3.9-0.2-7.2,2.6-7.5,6.5s2.6,7.2,6.5,7.5s7.2-2.6,7.5-6.5S99.9,40.2,96,40z M62.6,23.2c-0.2,2.7,1.8,4.9,4.5,5.1l0,0
	c2.7,0.2,4.9-1.8,5.1-4.5s-1.8-4.9-4.5-5.1C65.1,18.6,62.8,20.6,62.6,23.2z M68,12.5c1.7,0.1,3.1-1.2,3.2-2.8
	C71.3,8,70,6.6,68.4,6.5c-1.6-0.1-3,1.1-3.2,2.8C65,10.9,66.2,12.3,68,12.5C67.9,12.5,67.9,12.5,68,12.5z M108.8,82.5
	c-0.2,2.7,1.8,4.9,4.5,5.1c2.6,0.2,4.9-1.8,5.1-4.5c0.2-2.6-1.8-4.9-4.5-5.1C111.3,77.8,109,79.8,108.8,82.5z M70.6,35.4
	C70.6,35.4,70.5,35.4,70.6,35.4c-3.9-0.2-7.2,2.6-7.5,6.5s2.6,7.2,6.5,7.5s7.2-2.6,7.5-6.5S74.5,35.7,70.6,35.4z M128.8,88.9
	C128.9,88.9,128.9,88.9,128.8,88.9c1.7,0.1,3.2-1.2,3.2-2.8c0.1-1.7-1.2-3.1-2.8-3.2c-1.6-0.1-3,1.1-3.1,2.7
	C126,87.3,127.2,88.8,128.8,88.9z M96.7,82.9c3.9,0.3,7.2-2.6,7.5-6.5s-2.6-7.2-6.5-7.5h-0.1c-3.8-0.2-7.1,2.6-7.4,6.5l0,0
	C89.9,79.3,92.8,82.6,96.7,82.9z M77.8,53.9c-5.3-0.4-10,3.7-10.3,9c-0.4,5.3,3.6,10,9,10.4c5.3,0.4,10-3.6,10.4-9
	S83.1,54.3,77.8,53.9L77.8,53.9z"/>
</svg>
